<svg xmlns="http://www.w3.org/2000/svg" viewBox="0 0 40 40">
  <defs>
    <radialGradient id="lg" cx="50%" cy="60%" r="50%">
      <stop offset="0%" stop-color="#22D3EE"/>
      <stop offset="100%" stop-color="#06B6D4"/>
    </radialGradient>
    <radialGradient id="fg" cx="50%" cy="80%" r="50%">
      <stop offset="0%" stop-color="#FCD34D"/>
      <stop offset="100%" stop-color="#F59E0B"/>
    </radialGradient>
  </defs>
  <!-- Background -->
  <rect width="40" height="40" rx="10" fill="#060B18"/>
  <!-- Lamp body -->
  <path d="M8 28 C8 22 12 16 20 16 C28 16 32 22 32 28 L30 32 H10 Z" fill="url(#lg)"/>
  <!-- Spout -->
  <path d="M30 26 C34 24 36 22 35 20 C34 18 31 20 30 23" stroke="#22D3EE" stroke-width="2" stroke-linecap="round" fill="none"/>
  <!-- Handle -->
  <path d="M8 26 C4 24 3 22 5 20 C7 18 9 20 8 23" stroke="#22D3EE" stroke-width="2" stroke-linecap="round" fill="none"/>
  <!-- Base -->
  <rect x="9" y="32" width="22" height="3" rx="1.5" fill="#0891B2"/>
  <!-- Flame stem -->
  <rect x="19" y="12" width="2" height="4" rx="1" fill="#A5F3FC"/>
  <!-- Flame -->
  <ellipse cx="20" cy="10" rx="4" ry="5" fill="url(#fg)"/>
  <!-- Inner flame -->
  <ellipse cx="20" cy="11" rx="1.5" ry="2.5" fill="#FEF3C7" opacity="0.8"/>
  <!-- Sparkles -->
  <circle cx="12" cy="8" r="1" fill="#F59E0B" opacity="0.9"/>
  <circle cx="28" cy="6" r="1.2" fill="#22D3EE" opacity="0.9"/>
  <circle cx="33" cy="12" r="0.8" fill="#EC4899" opacity="0.8"/>
</svg>
