<svg xmlns="http://www.w3.org/2000/svg" viewBox="0 0 40 40">
  <rect width="40" height="40" rx="10" fill="#0F1729"/>
  <path d="M8 28 C8 22 12 16 20 16 C28 16 32 22 32 28 L30 32 H10 Z" fill="#7C3AED"/>
  <path d="M30 26 C34 24 36 22 35 20 C34 18 31 20 30 23" stroke="#A78BFA" stroke-width="2" stroke-linecap="round" fill="none"/>
  <path d="M8 26 C4 24 3 22 5 20 C7 18 9 20 8 23" stroke="#A78BFA" stroke-width="2" stroke-linecap="round" fill="none"/>
  <rect x="9" y="32" width="22" height="3" rx="1.5" fill="#6D28D9"/>
  <rect x="19" y="12" width="2" height="4" rx="1" fill="#C4B5FD"/>
  <ellipse cx="20" cy="10" rx="4" ry="5" fill="#F59E0B"/>
  <ellipse cx="20" cy="11" rx="1.5" ry="2.5" fill="#FEF3C7" opacity="0.8"/>
</svg>
